<svg width="244" height="32" viewBox="0 0 244 32" fill="none" xmlns="http://www.w3.org/2000/svg">
<path fill-rule="evenodd" clip-rule="evenodd" d="M6.29309 12.4502C6.84538 12.4502 7.29309 12.8979 7.29309 13.4502V26.0002H25.2931V13.4502C25.2931 12.8979 25.7408 12.4502 26.2931 12.4502C26.8454 12.4502 27.2931 12.8979 27.2931 13.4502V26.0002C27.2931 26.5306 27.0824 27.0393 26.7073 27.4144C26.3322 27.7895 25.8235 28.0002 25.2931 28.0002H7.29309C6.76266 28.0002 6.25395 27.7895 5.87888 27.4144C5.5038 27.0393 5.29309 26.5306 5.29309 26.0002V13.4502C5.29309 12.8979 5.74081 12.4502 6.29309 12.4502Z" fill="#A259FF"/>
<path fill-rule="evenodd" clip-rule="evenodd" d="M3.29309 5C3.29309 4.44772 3.74081 4 4.29309 4H28.2931C28.8454 4 29.2931 4.44772 29.2931 5C29.2931 5.55228 28.8454 6 28.2931 6H4.29309C3.74081 6 3.29309 5.55228 3.29309 5Z" fill="#A259FF"/>
<path fill-rule="evenodd" clip-rule="evenodd" d="M4.29309 7C4.84538 7 5.29309 7.44772 5.29309 8V10C5.29309 10.7956 5.60916 11.5587 6.17177 12.1213C6.73438 12.6839 7.49744 13 8.29309 13C9.08874 13 9.8518 12.6839 10.4144 12.1213C10.977 11.5587 11.2931 10.7956 11.2931 10V8C11.2931 7.44772 11.7408 7 12.2931 7C12.8454 7 13.2931 7.44772 13.2931 8V10C13.2931 11.3261 12.7663 12.5979 11.8286 13.5355C10.8909 14.4732 9.61917 15 8.29309 15C6.96701 15 5.69524 14.4732 4.75756 13.5355C3.81987 12.5979 3.29309 11.3261 3.29309 10V8C3.29309 7.44772 3.74081 7 4.29309 7Z" fill="#A259FF"/>
<path fill-rule="evenodd" clip-rule="evenodd" d="M12.2931 7C12.8454 7 13.2931 7.44772 13.2931 8V10C13.2931 10.7956 13.6092 11.5587 14.1718 12.1213C14.7344 12.6839 15.4974 13 16.2931 13C17.0887 13 17.8518 12.6839 18.4144 12.1213C18.977 11.5587 19.2931 10.7956 19.2931 10V8C19.2931 7.44772 19.7408 7 20.2931 7C20.8454 7 21.2931 7.44772 21.2931 8V10C21.2931 11.3261 20.7663 12.5979 19.8286 13.5355C18.8909 14.4732 17.6192 15 16.2931 15C14.967 15 13.6952 14.4732 12.7576 13.5355C11.8199 12.5979 11.2931 11.3261 11.2931 10V8C11.2931 7.44772 11.7408 7 12.2931 7Z" fill="#A259FF"/>
<path fill-rule="evenodd" clip-rule="evenodd" d="M20.2931 7C20.8454 7 21.2931 7.44772 21.2931 8V10C21.2931 10.7956 21.6092 11.5587 22.1718 12.1213C22.7344 12.6839 23.4974 13 24.2931 13C25.0887 13 25.8518 12.6839 26.4144 12.1213C26.977 11.5587 27.2931 10.7956 27.2931 10V8C27.2931 7.44772 27.7408 7 28.2931 7C28.8454 7 29.2931 7.44772 29.2931 8V10C29.2931 11.3261 28.7663 12.5979 27.8286 13.5355C26.8909 14.4732 25.6192 15 24.2931 15C22.967 15 21.6952 14.4732 20.7576 13.5355C19.8199 12.5979 19.2931 11.3261 19.2931 10V8C19.2931 7.44772 19.7408 7 20.2931 7Z" fill="#A259FF"/>
<path d="M51.7731 22.5476H52.1691V8.59961H55.0731V23.9996H49.3971L47.5931 10.0516H47.1971V23.9996H44.2931V8.59961H49.9691L51.7731 22.5476Z" fill="white"/>
<path d="M58.3578 8.59961H68.2138V11.3716H61.2618V14.8916H68.0818V17.6636H61.2618V23.9996H58.3578V8.59961Z" fill="white"/>
<path d="M71.0805 8.59961H82.1685V11.3716H78.0765V23.9996H75.1725V11.3716H71.0805V8.59961Z" fill="white"/>
<path d="M97.3179 8.59961H102.422L103.302 20.1716V22.4156H103.83V20.1716L104.71 8.59961H109.814V23.9996H107.174V13.7036L107.438 10.1836H106.91L105.766 23.9996H101.41L100.222 10.1836H99.6939L99.9579 13.7036V23.9996H97.3179V8.59961Z" fill="white"/>
<path d="M119.083 22.4156C118.789 23.1049 118.379 23.5963 117.851 23.8896C117.323 24.1683 116.707 24.3076 116.003 24.3076C115.343 24.3076 114.719 24.1829 114.133 23.9336C113.561 23.6843 113.055 23.3176 112.615 22.8336C112.175 22.3496 111.823 21.7629 111.559 21.0736C111.309 20.3843 111.185 19.5996 111.185 18.7196V18.3676C111.185 17.5023 111.309 16.7249 111.559 16.0356C111.808 15.3463 112.145 14.7596 112.571 14.2756C112.996 13.7916 113.487 13.4249 114.045 13.1756C114.617 12.9116 115.225 12.7796 115.871 12.7796C116.648 12.7796 117.271 12.9116 117.741 13.1756C118.225 13.4396 118.606 13.8503 118.885 14.4076H119.281V13.0876H122.053V20.6996C122.053 21.1396 122.251 21.3596 122.647 21.3596H123.065V23.9996H121.173C120.674 23.9996 120.263 23.8529 119.941 23.5596C119.633 23.2663 119.479 22.8849 119.479 22.4156H119.083ZM116.619 21.6676C117.425 21.6676 118.071 21.4036 118.555 20.8756C119.039 20.3329 119.281 19.5996 119.281 18.6756V18.4116C119.281 17.4876 119.039 16.7616 118.555 16.2336C118.071 15.6909 117.425 15.4196 116.619 15.4196C115.812 15.4196 115.167 15.6909 114.683 16.2336C114.199 16.7616 113.957 17.4876 113.957 18.4116V18.6756C113.957 19.5996 114.199 20.3329 114.683 20.8756C115.167 21.4036 115.812 21.6676 116.619 21.6676Z" fill="white"/>
<path d="M124.963 13.0876H129.583V14.6716H129.979C130.185 14.0703 130.529 13.6083 131.013 13.2856C131.512 12.9483 132.106 12.7796 132.795 12.7796C133.881 12.7796 134.753 13.1243 135.413 13.8136C136.073 14.4883 136.403 15.5223 136.403 16.9156V17.3996L133.543 17.6636V17.3556C133.543 16.7543 133.389 16.2776 133.081 15.9256C132.773 15.5589 132.311 15.3756 131.695 15.3756C131.079 15.3756 130.595 15.5883 130.243 16.0136C129.891 16.4389 129.715 17.0476 129.715 17.8396V21.3596H132.223V23.9996H124.699V21.3596H126.943V15.7276H124.963V13.0876Z" fill="white"/>
<path d="M142.614 17.0916H143.142L146.046 13.0876H149.082V13.2196L145.562 18.2136V18.6096L149.434 23.8676V23.9996H146.266L143.142 19.7316H142.614V23.9996H139.842V8.59961H142.614V17.0916Z" fill="white"/>
<path d="M154.875 19.4456C154.889 19.7683 154.963 20.0689 155.095 20.3476C155.241 20.6116 155.432 20.8463 155.667 21.0516C155.916 21.2423 156.195 21.3963 156.503 21.5136C156.825 21.6163 157.163 21.6676 157.515 21.6676C158.204 21.6676 158.732 21.5503 159.099 21.3156C159.465 21.0663 159.729 20.7729 159.891 20.4356L162.267 21.7556C162.135 22.0343 161.951 22.3276 161.717 22.6356C161.482 22.9289 161.174 23.2003 160.793 23.4496C160.426 23.6989 159.971 23.9043 159.429 24.0656C158.901 24.2269 158.277 24.3076 157.559 24.3076C156.737 24.3076 155.989 24.1756 155.315 23.9116C154.64 23.6476 154.053 23.2663 153.555 22.7676C153.071 22.2689 152.689 21.6603 152.411 20.9416C152.147 20.2229 152.015 19.4089 152.015 18.4996V18.3676C152.015 17.5316 152.154 16.7689 152.433 16.0796C152.726 15.3903 153.122 14.8036 153.621 14.3196C154.119 13.8356 154.699 13.4616 155.359 13.1976C156.033 12.9189 156.752 12.7796 157.515 12.7796C158.453 12.7796 159.26 12.9483 159.935 13.2856C160.609 13.6083 161.167 14.0263 161.607 14.5396C162.047 15.0383 162.369 15.5956 162.575 16.2116C162.78 16.8129 162.883 17.3996 162.883 17.9716V19.4456H154.875ZM157.493 15.2876C156.789 15.2876 156.217 15.4709 155.777 15.8376C155.337 16.1896 155.051 16.6003 154.919 17.0696H160.067C159.979 16.5563 159.7 16.1309 159.231 15.7936C158.776 15.4563 158.197 15.2876 157.493 15.2876Z" fill="white"/>
<path d="M165.595 13.0876H168.829V8.59961H171.601V13.0876H175.539V15.7276H171.601V20.6996C171.601 21.1396 171.799 21.3596 172.195 21.3596H175.143V23.9996H170.523C170.025 23.9996 169.614 23.8383 169.291 23.5156C168.983 23.1929 168.829 22.7823 168.829 22.2836V15.7276H165.595V13.0876Z" fill="white"/>
<path d="M181.574 28.3996H178.802V13.0876H181.574V14.6716H181.97C182.263 14.0703 182.689 13.6083 183.246 13.2856C183.803 12.9483 184.515 12.7796 185.38 12.7796C186.025 12.7796 186.634 12.9043 187.206 13.1536C187.793 13.4029 188.299 13.7696 188.724 14.2536C189.164 14.7229 189.509 15.3023 189.758 15.9916C190.022 16.6809 190.154 17.4656 190.154 18.3456V18.7416C190.154 19.6363 190.029 20.4283 189.78 21.1176C189.531 21.8069 189.193 22.3936 188.768 22.8776C188.343 23.3469 187.837 23.7063 187.25 23.9556C186.678 24.1903 186.055 24.3076 185.38 24.3076C184.881 24.3076 184.449 24.2563 184.082 24.1536C183.715 24.0509 183.393 23.9116 183.114 23.7356C182.85 23.5596 182.623 23.3616 182.432 23.1416C182.256 22.9069 182.102 22.6649 181.97 22.4156H181.574V28.3996ZM184.478 21.6676C185.343 21.6676 186.04 21.4036 186.568 20.8756C187.111 20.3329 187.382 19.5996 187.382 18.6756V18.4116C187.382 17.4876 187.111 16.7616 186.568 16.2336C186.04 15.6909 185.343 15.4196 184.478 15.4196C183.613 15.4196 182.909 15.6983 182.366 16.2556C181.838 16.7983 181.574 17.5169 181.574 18.4116V18.6756C181.574 19.5703 181.838 20.2963 182.366 20.8536C182.909 21.3963 183.613 21.6676 184.478 21.6676Z" fill="white"/>
<path d="M192.779 21.3596H196.607V11.2396H192.911V8.59961H199.379V21.3596H202.943V23.9996H192.779V21.3596Z" fill="white"/>
<path d="M213.378 22.4156C213.084 23.1049 212.674 23.5963 212.146 23.8896C211.618 24.1683 211.002 24.3076 210.298 24.3076C209.638 24.3076 209.014 24.1829 208.428 23.9336C207.856 23.6843 207.35 23.3176 206.91 22.8336C206.47 22.3496 206.118 21.7629 205.854 21.0736C205.604 20.3843 205.48 19.5996 205.48 18.7196V18.3676C205.48 17.5023 205.604 16.7249 205.854 16.0356C206.103 15.3463 206.44 14.7596 206.866 14.2756C207.291 13.7916 207.782 13.4249 208.34 13.1756C208.912 12.9116 209.52 12.7796 210.166 12.7796C210.943 12.7796 211.566 12.9116 212.036 13.1756C212.52 13.4396 212.901 13.8503 213.18 14.4076H213.576V13.0876H216.348V20.6996C216.348 21.1396 216.546 21.3596 216.942 21.3596H217.36V23.9996H215.468C214.969 23.9996 214.558 23.8529 214.236 23.5596C213.928 23.2663 213.774 22.8849 213.774 22.4156H213.378ZM210.914 21.6676C211.72 21.6676 212.366 21.4036 212.85 20.8756C213.334 20.3329 213.576 19.5996 213.576 18.6756V18.4116C213.576 17.4876 213.334 16.7616 212.85 16.2336C212.366 15.6909 211.72 15.4196 210.914 15.4196C210.107 15.4196 209.462 15.6909 208.978 16.2336C208.494 16.7616 208.252 17.4876 208.252 18.4116V18.6756C208.252 19.5996 208.494 20.3329 208.978 20.8756C209.462 21.4036 210.107 21.6676 210.914 21.6676Z" fill="white"/>
<path d="M230.434 19.9956C230.185 21.2863 229.591 22.3276 228.652 23.1196C227.728 23.9116 226.489 24.3076 224.934 24.3076C224.128 24.3076 223.372 24.1829 222.668 23.9336C221.979 23.6843 221.378 23.3249 220.864 22.8556C220.351 22.3863 219.948 21.8069 219.654 21.1176C219.361 20.4283 219.214 19.6436 219.214 18.7636V18.4996C219.214 17.6196 219.361 16.8276 219.654 16.1236C219.948 15.4196 220.351 14.8183 220.864 14.3196C221.392 13.8209 222.001 13.4396 222.69 13.1756C223.394 12.9116 224.142 12.7796 224.934 12.7796C226.46 12.7796 227.692 13.1756 228.63 13.9676C229.584 14.7596 230.185 15.8009 230.434 17.0916L227.706 17.7956C227.618 17.1503 227.34 16.5929 226.87 16.1236C226.401 15.6543 225.741 15.4196 224.89 15.4196C224.494 15.4196 224.12 15.4929 223.768 15.6396C223.416 15.7863 223.108 15.9989 222.844 16.2776C222.58 16.5416 222.368 16.8716 222.206 17.2676C222.06 17.6489 221.986 18.0816 221.986 18.5656V18.6976C221.986 19.1816 222.06 19.6143 222.206 19.9956C222.368 20.3623 222.58 20.6703 222.844 20.9196C223.108 21.1689 223.416 21.3596 223.768 21.4916C224.12 21.6089 224.494 21.6676 224.89 21.6676C225.741 21.6676 226.386 21.4549 226.826 21.0296C227.281 20.6043 227.574 20.0323 227.706 19.3136L230.434 19.9956Z" fill="white"/>
<path d="M235.699 19.4456C235.714 19.7683 235.787 20.0689 235.919 20.3476C236.066 20.6116 236.256 20.8463 236.491 21.0516C236.74 21.2423 237.019 21.3963 237.327 21.5136C237.65 21.6163 237.987 21.6676 238.339 21.6676C239.028 21.6676 239.556 21.5503 239.923 21.3156C240.29 21.0663 240.554 20.7729 240.715 20.4356L243.091 21.7556C242.959 22.0343 242.776 22.3276 242.541 22.6356C242.306 22.9289 241.998 23.2003 241.617 23.4496C241.25 23.6989 240.796 23.9043 240.253 24.0656C239.725 24.2269 239.102 24.3076 238.383 24.3076C237.562 24.3076 236.814 24.1756 236.139 23.9116C235.464 23.6476 234.878 23.2663 234.379 22.7676C233.895 22.2689 233.514 21.6603 233.235 20.9416C232.971 20.2229 232.839 19.4089 232.839 18.4996V18.3676C232.839 17.5316 232.978 16.7689 233.257 16.0796C233.55 15.3903 233.946 14.8036 234.445 14.3196C234.944 13.8356 235.523 13.4616 236.183 13.1976C236.858 12.9189 237.576 12.7796 238.339 12.7796C239.278 12.7796 240.084 12.9483 240.759 13.2856C241.434 13.6083 241.991 14.0263 242.431 14.5396C242.871 15.0383 243.194 15.5956 243.399 16.2116C243.604 16.8129 243.707 17.3996 243.707 17.9716V19.4456H235.699ZM238.317 15.2876C237.613 15.2876 237.041 15.4709 236.601 15.8376C236.161 16.1896 235.875 16.6003 235.743 17.0696H240.891C240.803 16.5563 240.524 16.1309 240.055 15.7936C239.6 15.4563 239.021 15.2876 238.317 15.2876Z" fill="white"/>
</svg>
